<?xml version="1.0" standalone="no"?>
<!DOCTYPE svg PUBLIC "-//W3C//DTD SVG 20010904//EN"
 "http://www.w3.org/TR/2001/REC-SVG-20010904/DTD/svg10.dtd">
<svg version="1.0" xmlns="http://www.w3.org/2000/svg"
 width="633.000000pt" height="598.000000pt" viewBox="0 0 633.000000 598.000000"
 preserveAspectRatio="xMidYMid meet">

<g transform="translate(0.000000,598.000000) scale(0.100000,-0.100000)"
fill="#FFFFFF" stroke="none">
<path d="M2950 5224 c-168 -20 -218 -28 -310 -50 -410 -97 -752 -287 -1056
-589 -272 -270 -459 -584 -568 -955 -23 -76 -32 -122 -66 -320 -6 -30 -13
-122 -16 -205 -36 -861 426 -1660 1191 -2060 239 -124 528 -210 795 -236 146
-14 453 -6 575 15 177 30 335 74 335 92 0 3 -37 53 -82 112 -45 59 -122 159
-170 222 -48 63 -150 196 -226 295 l-138 180 -140 7 c-150 7 -195 14 -319 55
-426 138 -742 477 -862 923 -26 99 -28 117 -28 310 0 194 1 210 28 305 72 257
174 433 354 611 277 274 677 411 1052 360 163 -23 272 -55 406 -120 363 -177
605 -482 701 -886 31 -130 41 -302 25 -424 l-12 -89 28 -38 c63 -85 625 -799
632 -803 21 -13 154 299 204 479 59 210 72 319 72 600 0 286 -14 395 -76 612
-83 286 -236 580 -414 793 -79 94 -269 279 -355 347 -293 228 -662 387 -1030
443 -76 11 -466 22 -530 14z"/>
<path d="M3360 2674 c-52 -14 -120 -36 -150 -50 -80 -36 -170 -97 -170 -114 0
-8 53 -83 118 -167 64 -83 163 -212 219 -285 57 -73 177 -230 268 -348 191
-248 221 -288 387 -505 191 -249 271 -326 418 -407 145 -80 315 -115 500 -104
122 7 197 23 296 64 71 30 204 108 204 120 0 4 -31 46 -68 94 -37 47 -285 371
-552 719 -267 348 -511 663 -543 701 -111 130 -290 238 -471 283 -139 35 -320
35 -456 -1z"/>
</g>
</svg>
